<?xml version="1.0" standalone="no"?>
<!DOCTYPE svg PUBLIC "-//W3C//DTD SVG 20010904//EN"
 "http://www.w3.org/TR/2001/REC-SVG-20010904/DTD/svg10.dtd">
<svg version="1.0" xmlns="http://www.w3.org/2000/svg"
 width="1280.000000pt" height="795.000000pt" viewBox="0 0 1280.000000 795.000000"
 preserveAspectRatio="xMidYMid meet">
<g transform="translate(0.000000,795.000000) scale(0.100000,-0.100000)"
fill="#000000" stroke="none">
<path d="M0 3975 l0 -3975 6400 0 6400 0 0 3975 0 3975 -6400 0 -6400 0 0
-3975z m11684 3406 c-20 -21 -5279 -4211 -5284 -4211 -5 0 -5264 4190 -5284
4211 -6 5 2031 9 5284 9 3253 0 5290 -4 5284 -9z m-9125 -1867 c1053 -835
1921 -1524 1929 -1529 11 -9 -364 -307 -1670 -1330 -925 -726 -1810 -1420
-1966 -1542 -156 -123 -285 -223 -288 -223 -2 0 -4 1398 -4 3106 l0 3106 43
-34 c23 -19 904 -718 1956 -1554z m9679 -3069 l-3 -1557 -1962 1539 c-1079
846 -1964 1541 -1965 1545 -2 4 881 709 1962 1566 l1965 1560 3 -1548 c1 -852
1 -2249 0 -3105z m-6571 600 c400 -316 730 -575 733 -575 3 0 333 259 733 575
l729 575 137 -107 c76 -60 955 -749 1955 -1533 l1817 -1425 -2686 -3 c-1477
-1 -3893 -1 -5370 0 l-2686 3 1953 1532 c1074 843 1954 1532 1955 1533 1 0
329 -259 730 -575z"/>
</g>
</svg>
