<?xml version="1.0" encoding="UTF-8" standalone="no"?>
<svg
   xmlns:dc="http://purl.org/dc/elements/1.1/"
   xmlns:cc="http://creativecommons.org/ns#"
   xmlns:rdf="http://www.w3.org/1999/02/22-rdf-syntax-ns#"
   xmlns:svg="http://www.w3.org/2000/svg"
   xmlns="http://www.w3.org/2000/svg"
   xmlns:sodipodi="http://sodipodi.sourceforge.net/DTD/sodipodi-0.dtd"
   xmlns:inkscape="http://www.inkscape.org/namespaces/inkscape"
   height="160"
   width="160"
   version="1.0"
   id="svg10"
   sodipodi:docname="Infobox_info_icon.svg"
   inkscape:version="0.92.2 5c3e80d, 2017-08-06">
  <metadata
     id="metadata16">
    <rdf:RDF>
      <cc:Work
         rdf:about="">
        <dc:format>image/svg+xml</dc:format>
        <dc:type
           rdf:resource="http://purl.org/dc/dcmitype/StillImage" />
      </cc:Work>
    </rdf:RDF>
  </metadata>
  <defs
     id="defs14" />
  <sodipodi:namedview
     pagecolor="#ffffff"
     bordercolor="#666666"
     borderopacity="1"
     objecttolerance="10"
     gridtolerance="10"
     guidetolerance="10"
     inkscape:pageopacity="0"
     inkscape:pageshadow="2"
     inkscape:window-width="1277"
     inkscape:window-height="960"
     id="namedview12"
     showgrid="false"
     inkscape:zoom="1.475"
     inkscape:cx="80"
     inkscape:cy="80"
     inkscape:window-x="475"
     inkscape:window-y="0"
     inkscape:window-maximized="0"
     inkscape:current-layer="svg10" />
  <g
     fill="#4b4b4b"
     id="g8"
     style="fill:#090909;fill-opacity:1">
    <path
       d="m80 15c-35.88 0-65 29.12-65 65s29.12 65 65 65 65-29.12 65-65-29.12-65-65-65zm0 10c30.36 0 55 24.64 55 55s-24.64 55-55 55-55-24.64-55-55 24.64-55 55-55z"
       id="path2"
       style="fill:#090909;fill-opacity:1" />
    <path
       d="m57.373 18.231a9.3834 9.1153 0 1 1 -18.767 0 9.3834 9.1153 0 1 1 18.767 0z"
       transform="matrix(1.1989 0 0 1.2342 21.214 28.75)"
       id="path4"
       style="fill:#090909;fill-opacity:1" />
    <path
       d="m90.665 110.96c-0.069 2.73 1.211 3.5 4.327 3.82l5.008 0.1v5.12h-39.073v-5.12l5.503-0.1c3.291-0.1 4.082-1.38 4.327-3.82v-30.813c0.035-4.879-6.296-4.113-10.757-3.968v-5.074l30.665-1.105"
       id="path6"
       style="fill:#090909;fill-opacity:1" />
  </g>
</svg>
